<svg xmlns="http://www.w3.org/2000/svg" viewBox="0 0 24 24" width="24" height="24" color="#88c0d0" fill="none">
  <path fill="#88c0d0"
    d="M4.143,22.75 C4.089,22.75 4.036,22.75 3.981,22.748 L3.902,22.745 C3.219,22.724 2.629,22.705 2.273,22.135 L2.263,22.119 L2.254,22.104 C1.917,21.502 2.211,20.948 2.618,20.181 L2.618,20.181 L2.618,20.181 L2.636,20.147 C2.969,19.522 3.296,18.657 2.986,18.056 C1.955,16.52 1.385,15 1.291,13.537 C1.239,12.668 1.239,11.79 1.291,10.924 C1.584,6.323 5.233,2.625 9.779,2.321 C10.28,2.284 10.84,2.261 11.486,2.25 L11.5,2.25 C11.908,2.25 12.242,2.577 12.25,2.987 C12.257,3.401 11.928,3.743 11.513,3.75 C10.895,3.761 10.362,3.783 9.884,3.818 C6.082,4.073 3.033,7.168 2.788,11.018 C2.74,11.81 2.74,12.651 2.788,13.445 C2.865,14.646 3.358,15.927 4.251,17.25 C4.263,17.268 4.275,17.287 4.286,17.307 C4.815,18.263 4.706,19.456 3.962,20.853 L3.944,20.886 C3.881,21.004 3.815,21.129 3.758,21.242 L3.95,21.248 L4.024,21.25 C4.946,21.27 5.649,21.065 6.302,20.578 C6.304,20.576 6.307,20.575 6.309,20.573 C6.311,20.571 6.313,20.569 6.316,20.568 L6.385,20.519 C6.82,20.209 7.039,20.054 7.336,20.008 C7.661,19.958 7.941,20.074 8.498,20.303 L8.5,20.304 L8.625,20.356 C9.002,20.512 9.457,20.615 9.875,20.641 C11.262,20.738 12.727,20.739 14.117,20.641 C17.917,20.387 20.966,17.291 21.211,13.442 C21.237,13.02 21.249,12.548 21.249,12 C21.249,11.586 21.585,11.25 21.999,11.25 C22.413,11.25 22.749,11.586 22.749,12 C22.749,12.579 22.735,13.082 22.708,13.536 C22.415,18.136 18.766,21.834 14.22,22.138 C13.492,22.189 12.744,22.214 11.997,22.214 C11.249,22.214 10.502,22.189 9.778,22.138 C9.199,22.102 8.585,21.962 8.054,21.743 L7.929,21.691 C7.791,21.634 7.65,21.576 7.547,21.537 C7.47,21.588 7.37,21.66 7.27,21.731 L7.255,21.742 L7.192,21.787 C6.319,22.436 5.321,22.752 4.144,22.752 Z M17.998,10.75 C17.611,10.75 17.373,10.665 17.073,10.558 L17.067,10.556 C14.235,9.525 12.79,6.832 13.38,3.691 C13.421,3.432 13.475,3.114 13.723,2.855 C13.938,2.622 14.209,2.539 14.693,2.391 L14.719,2.383 C15.008,2.296 15.306,2.141 15.62,1.976 L15.622,1.975 C16.272,1.635 17.008,1.25 17.999,1.25 C18.99,1.25 19.727,1.635 20.376,1.975 L20.378,1.976 C20.692,2.141 20.99,2.296 21.273,2.381 L21.305,2.391 C21.788,2.539 22.059,2.623 22.274,2.855 C22.497,3.088 22.55,3.352 22.605,3.632 L22.613,3.673 C23.21,6.826 21.766,9.524 18.934,10.555 C18.628,10.665 18.388,10.75 17.998,10.75 Z M14.865,3.909 C14.864,3.918 14.862,3.928 14.86,3.938 C14.859,3.945 14.858,3.952 14.856,3.959 C14.397,6.38 15.439,8.367 17.576,9.145 C17.836,9.238 17.874,9.25 17.999,9.25 C18.124,9.25 18.163,9.238 18.427,9.144 C20.559,8.368 21.601,6.381 21.142,3.96 L21.135,3.925 L21.132,3.909 C21.053,3.883 20.956,3.853 20.865,3.825 L20.839,3.817 C20.423,3.693 20.049,3.497 19.686,3.306 L19.683,3.305 C19.138,3.019 18.623,2.75 17.999,2.75 C17.379,2.75 16.867,3.017 16.324,3.301 L16.315,3.305 L16.313,3.306 C15.951,3.496 15.575,3.692 15.153,3.818 L15.132,3.824 L15.104,3.833 C15.021,3.858 14.935,3.885 14.863,3.908 Z M8.498,15.75 C8.084,15.75 7.748,15.414 7.748,15 C7.748,14.586 8.084,14.25 8.498,14.25 L15.498,14.25 C15.912,14.25 16.248,14.586 16.248,15 C16.248,15.414 15.912,15.75 15.498,15.75 Z M8.498,10.75 C8.084,10.75 7.748,10.414 7.748,10 C7.748,9.586 8.084,9.25 8.498,9.25 L10.998,9.25 C11.412,9.25 11.748,9.586 11.748,10 C11.748,10.414 11.412,10.75 10.998,10.75 Z" />
</svg>
