<svg xmlns="http://www.w3.org/2000/svg" viewBox="0 0 24 24" width="24" height="24" color="#88c0d0" fill="none">
  <path fill="#88c0d0"
    d="M14.548,2.488 L14.622,2.562 L19.359,7.298 L19.444,7.384 C19.939,7.877 20.33,8.268 20.541,8.776 C20.751,9.284 20.751,9.837 20.75,10.535 L20.75,10.536 L20.75,10.657 L20.75,14.057 C20.75,15.894 20.75,17.35 20.597,18.489 C20.439,19.662 20.107,20.611 19.359,21.359 C18.61,22.107 17.661,22.439 16.489,22.597 C15.35,22.75 13.894,22.75 12.057,22.75 L11.943,22.75 C10.106,22.75 8.65,22.75 7.511,22.597 C6.339,22.439 5.39,22.107 4.641,21.359 C3.893,20.611 3.561,19.662 3.403,18.489 C3.25,17.35 3.25,15.894 3.25,14.057 L3.25,9.408 C3.25,7.826 3.25,6.573 3.366,5.581 C3.485,4.563 3.734,3.723 4.302,3.019 C4.515,2.755 4.755,2.515 5.019,2.302 C5.723,1.734 6.562,1.485 7.581,1.366 C8.573,1.25 9.826,1.25 11.408,1.25 L11.456,1.25 L11.56,1.25 C12.163,1.25 12.64,1.249 13.087,1.407 C13.179,1.439 13.27,1.477 13.358,1.519 C13.786,1.724 14.122,2.061 14.548,2.488 Z M11.456,2.75 C9.815,2.75 8.65,2.751 7.755,2.856 C6.876,2.958 6.355,3.152 5.96,3.47 C5.78,3.615 5.615,3.78 5.47,3.96 C5.152,4.355 4.958,4.876 4.856,5.755 C4.751,6.65 4.75,7.815 4.75,9.456 L4.75,14 C4.75,15.907 4.752,17.262 4.89,18.289 C5.025,19.295 5.279,19.875 5.702,20.298 C6.125,20.721 6.705,20.975 7.711,21.11 C8.739,21.249 10.093,21.25 12,21.25 C13.907,21.25 15.262,21.249 16.289,21.11 C17.295,20.975 17.875,20.721 18.298,20.298 C18.721,19.875 18.975,19.295 19.11,18.289 C19.248,17.262 19.25,15.907 19.25,14 L19.25,10.657 C19.25,10.219 19.247,9.942 19.233,9.75 L18.945,9.75 C17.577,9.75 16.475,9.75 15.608,9.634 C14.708,9.513 13.95,9.254 13.348,8.652 C12.746,8.05 12.488,7.292 12.366,6.392 C12.25,5.525 12.25,4.423 12.25,3.055 L12.25,2.763 C12.083,2.753 11.842,2.75 11.456,2.75 Z M7.25,17 C7.25,16.586 7.586,16.25 8,16.25 L16,16.25 C16.414,16.25 16.75,16.586 16.75,17 C16.75,17.414 16.414,17.75 16,17.75 L8,17.75 C7.586,17.75 7.25,17.414 7.25,17 Z M13.853,6.192 C13.952,6.926 14.132,7.314 14.409,7.591 C14.686,7.868 15.074,8.048 15.808,8.147 C16.412,8.228 17.174,8.245 18.188,8.249 L13.751,3.812 C13.755,4.827 13.772,5.588 13.853,6.192 Z M7.25,13 C7.25,12.586 7.586,12.25 8,12.25 L12,12.25 C12.414,12.25 12.75,12.586 12.75,13 C12.75,13.414 12.414,13.75 12,13.75 L8,13.75 C7.586,13.75 7.25,13.414 7.25,13 Z" />
</svg>
