<svg xmlns="http://www.w3.org/2000/svg" viewBox="0 0 24 24" width="24" height="24" color="#88c0d0" fill="none">
  <defs />
  <path fill="currentColor"
    d="M12.315,6.539 L16.642,6.539 C17.661,6.539 18.483,6.539 19.142,6.606 C19.823,6.675 20.413,6.822 20.935,7.171 C21.344,7.445 21.696,7.796 21.97,8.206 C22.318,8.728 22.465,9.318 22.535,9.999 C22.602,10.658 22.602,11.48 22.602,12.499 L22.602,12.581 C22.602,14.301 22.602,15.649 22.492,16.723 C22.381,17.817 22.15,18.709 21.632,19.484 C21.213,20.111 20.674,20.651 20.046,21.07 C19.272,21.587 18.38,21.819 17.285,21.93 C16.212,22.039 14.864,22.039 13.144,22.039 L11.794,22.039 C9.486,22.039 7.677,22.039 6.265,21.849 C4.821,21.655 3.681,21.25 2.786,20.355 C1.891,19.46 1.486,18.32 1.291,16.875 C1.102,15.464 1.102,13.655 1.102,11.347 L1.102,8.199 C1.102,7.32 1.102,6.611 1.152,6.039 C1.204,5.449 1.314,4.933 1.577,4.462 C1.916,3.854 2.417,3.353 3.024,3.015 C3.495,2.752 4.012,2.642 4.601,2.59 C5.174,2.539 5.882,2.539 6.761,2.539 L6.796,2.539 C6.843,2.539 6.889,2.539 6.934,2.539 L6.934,2.539 C7.964,2.539 8.675,2.538 9.314,2.778 C10.71,3.301 11.322,4.54 11.794,5.496 C11.826,5.561 11.858,5.625 11.889,5.687 Z M8.787,4.182 C8.436,4.051 8.019,4.039 6.796,4.039 C5.874,4.039 5.232,4.04 4.733,4.084 C4.244,4.127 3.965,4.207 3.755,4.324 C3.391,4.528 3.09,4.828 2.887,5.193 C2.77,5.403 2.689,5.682 2.646,6.171 C2.602,6.669 2.602,7.312 2.602,8.233 L2.602,11.289 C2.602,13.667 2.603,15.376 2.778,16.676 C2.95,17.954 3.277,18.725 3.846,19.294 C4.416,19.864 5.187,20.191 6.465,20.363 C7.765,20.538 9.473,20.539 11.852,20.539 L13.102,20.539 C14.873,20.539 16.145,20.538 17.133,20.438 C18.11,20.338 18.726,20.148 19.213,19.823 C19.677,19.513 20.075,19.114 20.385,18.65 C20.711,18.163 20.901,17.547 21,16.571 C21.101,15.582 21.102,14.31 21.102,12.539 C21.102,11.47 21.101,10.725 21.042,10.15 C20.985,9.588 20.879,9.274 20.722,9.039 C20.558,8.793 20.347,8.582 20.102,8.418 C19.867,8.262 19.552,8.156 18.99,8.098 C18.416,8.04 17.67,8.039 16.602,8.039 L11.868,8.039 C11.857,8.039 11.847,8.039 11.837,8.039 L6.852,8.039 C6.437,8.039 6.102,7.703 6.102,7.289 C6.102,6.875 6.437,6.539 6.852,6.539 L10.638,6.539 L10.532,6.326 C9.978,5.219 9.615,4.493 8.787,4.182 Z" />
</svg>
