<svg xmlns="http://www.w3.org/2000/svg" viewBox="0 0 24 24" width="24" height="24" color="#88c0d0" fill="none">
  <path fill="currentColor"
    d="M2.279,6.791 C2.26,6.7 2.25,6.602 2.25,6.5 C2.25,5.798 2.735,5.352 3.181,5.05 C3.627,4.749 4.269,4.439 5.024,4.073 L5.078,4.047 L7.999,2.634 L8.165,2.553 C9.807,1.758 10.856,1.25 12,1.25 C13.144,1.25 14.193,1.758 15.835,2.553 L16.001,2.634 L18.976,4.073 C19.732,4.439 20.373,4.749 20.819,5.05 C21.265,5.352 21.75,5.798 21.75,6.5 C21.75,6.602 21.74,6.7 21.721,6.791 C21.74,6.858 21.75,6.928 21.75,7 L21.75,17.161 C21.75,18.282 20.933,19.027 19.927,19.631 C18.908,20.242 17.41,20.874 15.517,21.674 L15.455,21.7 L15.306,21.763 C13.887,22.363 12.972,22.75 12,22.75 C11.028,22.75 10.113,22.363 8.694,21.763 L8.545,21.7 L8.483,21.674 C6.59,20.874 5.092,20.242 4.073,19.631 C3.067,19.027 2.25,18.282 2.25,17.161 L2.25,7 C2.25,6.928 2.26,6.858 2.279,6.791 Z M3.75,8.289 L3.75,17.161 C3.75,17.423 3.905,17.78 4.845,18.344 C5.761,18.894 7.16,19.487 9.129,20.319 C10.148,20.749 10.771,21.006 11.25,21.138 L11.25,11.678 C10.365,11.512 9.445,11.067 8.165,10.447 L7.999,10.366 L5.024,8.927 C4.547,8.696 4.116,8.487 3.75,8.289 Z M12.75,11.678 L12.75,21.138 C13.229,21.006 13.852,20.749 14.871,20.319 C16.84,19.487 18.239,18.894 19.155,18.344 C20.094,17.78 20.25,17.423 20.25,17.161 L20.25,8.289 C19.885,8.487 19.453,8.696 18.976,8.927 L18.976,8.927 L16.001,10.366 L15.835,10.447 C14.555,11.067 13.635,11.512 12.75,11.678 Z M8.653,3.984 L5.731,5.397 C4.907,5.796 4.366,6.06 4.021,6.293 C3.873,6.393 3.801,6.461 3.768,6.5 C3.801,6.539 3.873,6.607 4.021,6.707 C4.366,6.94 4.907,7.204 5.731,7.603 L6.944,8.19 L15.352,3.986 L15.347,3.984 C13.48,3.08 12.758,2.75 12,2.75 C11.242,2.75 10.52,3.08 8.653,3.984 Z M8.649,9.014 L8.653,9.016 C10.52,9.92 11.242,10.25 12,10.25 C12.758,10.25 13.48,9.92 15.347,9.016 L18.269,7.603 C19.093,7.204 19.634,6.94 19.979,6.707 C20.127,6.607 20.199,6.539 20.232,6.5 C20.199,6.461 20.127,6.393 19.979,6.293 C19.634,6.06 19.093,5.796 18.269,5.397 L17.056,4.811 Z M5.329,11.665 C5.515,11.294 5.965,11.144 6.336,11.329 L8.336,12.329 C8.706,12.515 8.856,12.965 8.671,13.336 C8.486,13.706 8.035,13.856 7.665,13.671 L5.665,12.671 C5.294,12.486 5.144,12.035 5.329,11.665 Z" />
</svg>
