<svg xmlns="http://www.w3.org/2000/svg" viewBox="0 0 24 24" width="24" height="24" color="#88c0d0" fill="none">
  <path fill="#88C0D0"
    d="M9.444,3.25 L10.556,3.25 C12.158,3.25 13.437,3.25 14.44,3.385 C15.477,3.524 16.33,3.82 17.005,4.495 C17.68,5.17 17.976,6.023 18.115,7.06 C18.13,7.169 18.143,7.282 18.155,7.399 C18.751,6.918 19.27,6.523 19.725,6.249 C20.409,5.836 21.194,5.542 21.983,5.933 C22.762,6.319 23.023,7.116 23.136,7.917 C23.25,8.72 23.25,9.809 23.25,11.151 L23.25,12.849 C23.25,14.191 23.25,15.28 23.136,16.083 C23.023,16.884 22.762,17.681 21.983,18.067 C21.194,18.458 20.409,18.164 19.725,17.751 C19.27,17.476 18.751,17.082 18.155,16.601 C18.143,16.718 18.13,16.831 18.115,16.94 C17.976,17.977 17.68,18.83 17.005,19.505 C16.33,20.18 15.477,20.476 14.44,20.615 C13.437,20.75 12.158,20.75 10.556,20.75 L9.444,20.75 C7.842,20.75 6.563,20.75 5.56,20.615 C4.523,20.476 3.67,20.18 2.995,19.505 C2.32,18.83 2.024,17.977 1.885,16.94 C1.75,15.937 1.75,14.658 1.75,13.056 L1.75,10.944 C1.75,9.342 1.75,8.063 1.885,7.06 C2.024,6.023 2.32,5.17 2.995,4.495 C3.67,3.82 4.523,3.524 5.56,3.385 C6.563,3.25 7.842,3.25 9.444,3.25 Z M5.759,4.871 C4.89,4.988 4.405,5.205 4.055,5.555 C3.705,5.905 3.488,6.39 3.371,7.259 C3.252,8.151 3.25,9.329 3.25,11 L3.25,13 C3.25,14.671 3.252,15.849 3.371,16.74 C3.488,17.61 3.705,18.095 4.055,18.444 C4.405,18.795 4.89,19.012 5.759,19.128 C6.651,19.248 7.829,19.25 9.5,19.25 L10.5,19.25 C12.171,19.25 13.349,19.248 14.241,19.128 C15.11,19.012 15.595,18.795 15.944,18.444 C16.295,18.095 16.512,17.61 16.628,16.74 C16.748,15.849 16.75,14.671 16.75,13 L16.75,11 C16.75,9.329 16.748,8.151 16.628,7.259 C16.512,6.39 16.295,5.905 15.944,5.555 C15.595,5.205 15.11,4.988 14.241,4.871 C13.349,4.752 12.171,4.75 10.5,4.75 L9.5,4.75 C7.829,4.75 6.651,4.752 5.759,4.871 Z M18.243,14.735 C19.246,15.562 19.949,16.134 20.5,16.467 C21.087,16.822 21.256,16.753 21.317,16.723 C21.388,16.688 21.552,16.575 21.651,15.873 C21.748,15.187 21.75,14.204 21.75,12.782 L21.75,11.218 C21.75,9.796 21.748,8.813 21.651,8.127 C21.552,7.425 21.388,7.312 21.317,7.277 C21.256,7.247 21.087,7.178 20.5,7.533 C19.949,7.866 19.246,8.438 18.243,9.265 C18.25,9.781 18.25,10.339 18.25,10.944 L18.25,13.056 C18.25,13.661 18.25,14.219 18.243,14.735 Z M10.75,8 C10.75,7.586 11.086,7.25 11.5,7.25 L13.5,7.25 C13.914,7.25 14.25,7.586 14.25,8 C14.25,8.414 13.914,8.75 13.5,8.75 L11.5,8.75 C11.086,8.75 10.75,8.414 10.75,8 Z" />
</svg>
