<svg width="128" height="128" viewBox="0 0 128 128" fill="none" xmlns="http://www.w3.org/2000/svg">
  <path d="M18.9346 65V41.2712L1.08008 15H15.4884L25.9212 30.8192L37.4361 15H50.0801L30.8141 40.7886V65H18.9346Z"
    fill="#E94539" />
  <path
    d="M39.0801 65L63.9823 15H64.7184L89.0801 65H76.8878L73.7822 57.9452H53.9754L50.8008 65H39.0801ZM57.3455 49.5776H70.182L63.8558 34.395L57.3455 49.5776Z"
    fill="#88c0d0" />
  <path
    d="M35.0801 118.293L44.7127 70H45.51L62.9842 100.456L79.5191 70H80.3601L90.0801 118.293H79.5519L75.6202 96.9324L63.1698 120H62.4381L49.0267 96.6131L44.9639 118.293H35.0801Z"
    fill="#E94539" />
  <path d="M96.1602 120V70H107.938V109.277H127.16V120H96.1602Z" fill="#E94539" />
</svg>
